<?xml version="1.0" encoding="utf-8"?>
<!-- Generator: Adobe Illustrator 19.1.0, SVG Export Plug-In . SVG Version: 6.00 Build 0)  -->
<svg version="1.1" id="Layer_1" xmlns="http://www.w3.org/2000/svg" xmlns:xlink="http://www.w3.org/1999/xlink" x="0px" y="0px"
	 viewBox="0 0 167.9 47.4" style="enable-background:new 0 0 167.9 47.4;" xml:space="preserve">
<style type="text/css">
	.st0{fill:#03A3A9;}
	.st1{fill:#B1B1B1;}
	.st2{fill:#EDECEC;}
	.st3{fill:#F5C400;}
</style>
<g id="XMLID_5_">
	<g id="XMLID_75_">
		<path id="XMLID_96_" class="st0" d="M66,10.3v2.5h-0.3c-0.9-0.5-2.2-0.8-3.3-0.8c-1.1,0-2.1,0.3-2.9,1.3c-0.7,0.9-1,2.2-1,3.3
			s0.3,2.5,1,3.4c0.7,0.8,1.8,1.2,2.9,1.2c1,0,2.3-0.3,3.2-0.8h0.3v2.5c-1.2,0.4-2.3,0.7-3.6,0.7c-1.7,0-3.3-0.5-4.6-1.7
			c-1.5-1.4-2.1-3.4-2.1-5.4c0-1.7,0.5-3.5,1.7-4.9c1.3-1.4,3-2,4.9-2C63.8,9.7,64.8,9.9,66,10.3z"/>
		<path id="XMLID_93_" class="st0" d="M71.5,10.9c0.3-0.7,1-1.2,1.8-1.2c0.8,0,1.5,0.5,1.8,1.2l4.7,12.5h-2.8l-1.2-3.2h-5.3
			l-1.2,3.2h-2.6L71.5,10.9z M71.5,17.9h3.6l-1.8-5.1L71.5,17.9z"/>
		<path id="XMLID_91_" class="st0" d="M85.3,10.8l5.3,8.3V9.9h2.4v13.6h-2.5l-6.3-9.8v9.8h-2.4V11.5c0-0.9,0.6-1.8,1.6-1.8
			C84.2,9.7,84.8,10.2,85.3,10.8z"/>
		<path id="XMLID_89_" class="st0" d="M94.6,12.2V9.9h10.1v2.4h-3.8v11.2h-2.6V12.2H94.6z"/>
		<path id="XMLID_87_" class="st0" d="M108.8,23.4h-2.6V9.9h2.6V23.4z"/>
		<path id="XMLID_85_" class="st0" d="M112.4,9.9h2.6v10.6c0,0.3,0.3,0.6,0.6,0.6h4.6v2.4H115c-1.5,0-2.7-1.2-2.7-2.7V9.9z"/>
		<path id="XMLID_83_" class="st0" d="M121.8,12.5c0-1.4,1.2-2.6,2.6-2.6h6.8v2.4H125c-0.3,0-0.6,0.3-0.6,0.6v2.3h5v2.3h-5V21h6.8
			v2.4h-9.4V12.5z"/>
		<path id="XMLID_81_" class="st0" d="M141.7,9.9h2.5l-4.3,12.4c-0.3,0.8-0.9,1.2-1.7,1.3c-0.8,0-1.5-0.5-1.8-1.3l-4.3-12.4h2.8
			l3.4,10.3L141.7,9.9z"/>
		<path id="XMLID_79_" class="st0" d="M145.7,12.5c0-1.4,1.2-2.6,2.6-2.6h6.8v2.4h-6.2c-0.3,0-0.6,0.3-0.6,0.6v2.3h5v2.3h-5V21h6.8
			v2.4h-9.4V12.5z"/>
		<path id="XMLID_76_" class="st0" d="M168,23.4h-3.2l-3.4-4.9h-1.7v4.9h-2.6V12.5c0-1.5,1.2-2.6,2.7-2.6h1.8c1.2,0,2.2,0,3.3,0.5
			c1.4,0.7,2.1,2.2,2.1,3.8c0,1.4-0.5,2.8-1.8,3.6c-0.3,0.2-0.6,0.3-0.9,0.4L168,23.4z M159.7,16.2h2c1.2,0,2.5-0.5,2.5-2
			c0-1.5-0.8-2.1-2.6-2.1h-1.3c-0.3,0-0.6,0.3-0.6,0.6V16.2z"/>
	</g>
	<g id="XMLID_27_">
		<path id="XMLID_28_" class="st1" d="M56.5,32.3c0-1.5,0.3-2.8,1-3.7c0.7-0.9,1.6-1.4,2.7-1.4c0.7,0,1.3,0.1,1.8,0.4
			c0.5,0.3,0.9,0.7,1.2,1.3l0.2-1.5h0.9v9.7c0,1.2-0.3,2.2-1,2.8c-0.7,0.7-1.6,1-2.9,1c-0.5,0-1-0.1-1.5-0.2c-0.5-0.1-1-0.3-1.4-0.5
			l0.2-0.9c0.4,0.2,0.8,0.3,1.2,0.4c0.4,0.1,0.9,0.1,1.4,0.1c1,0,1.7-0.2,2.1-0.7c0.5-0.5,0.7-1.2,0.7-2.2v-1.4
			c-0.3,0.5-0.7,0.9-1.2,1.1c-0.5,0.3-1.1,0.4-1.7,0.4c-1.2,0-2.1-0.4-2.7-1.3c-0.7-0.9-1-2-1-3.5V32.3z M57.6,32.5
			c0,1.2,0.2,2.1,0.7,2.8c0.5,0.7,1.2,1,2.1,1c0.7,0,1.2-0.2,1.7-0.5c0.5-0.3,0.8-0.7,1.1-1.3V30c-0.2-0.5-0.6-1-1-1.3
			c-0.4-0.3-1-0.5-1.7-0.5c-0.9,0-1.6,0.4-2.1,1.2c-0.5,0.8-0.7,1.8-0.7,3V32.5z"/>
		<path id="XMLID_31_" class="st1" d="M71.5,28.3l-0.8-0.1c-0.7,0-1.2,0.2-1.7,0.6c-0.4,0.4-0.7,0.9-0.9,1.6V37H67v-9.7H68l0.1,1.6
			v0.1c0.3-0.6,0.7-1.1,1.1-1.4c0.5-0.3,1-0.5,1.7-0.5c0.1,0,0.3,0,0.4,0c0.1,0,0.2,0,0.3,0.1L71.5,28.3z"/>
		<path id="XMLID_33_" class="st1" d="M72.5,32.1c0-1.4,0.4-2.6,1.2-3.5c0.8-0.9,1.8-1.4,3.1-1.4c1.3,0,2.3,0.5,3.1,1.4
			c0.8,0.9,1.2,2.1,1.2,3.5v0.3c0,1.4-0.4,2.6-1.2,3.5c-0.8,0.9-1.8,1.4-3.1,1.4c-1.3,0-2.3-0.5-3.1-1.4c-0.8-0.9-1.2-2.1-1.2-3.5
			V32.1z M73.6,32.4c0,1.1,0.3,2.1,0.8,2.8c0.6,0.8,1.4,1.1,2.4,1.1c1,0,1.8-0.4,2.3-1.1s0.9-1.7,0.9-2.8v-0.3c0-1.1-0.3-2-0.9-2.8
			c-0.6-0.8-1.4-1.2-2.4-1.2c-1,0-1.8,0.4-2.3,1.2c-0.6,0.8-0.8,1.7-0.8,2.8V32.4z"/>
		<path id="XMLID_36_" class="st1" d="M89.6,35.5c-0.3,0.6-0.7,1-1.2,1.3c-0.5,0.3-1.1,0.5-1.9,0.5c-1,0-1.8-0.3-2.4-1
			c-0.6-0.7-0.9-1.8-0.9-3.2v-5.6h1.1V33c0,1.2,0.2,2,0.6,2.5c0.4,0.5,1,0.8,1.7,0.8c0.8,0,1.4-0.2,1.9-0.5c0.5-0.4,0.8-0.9,1-1.5
			v-6.9h1.1V37h-0.9L89.6,35.5z"/>
		<path id="XMLID_38_" class="st1" d="M101.2,32.5c0,1.4-0.3,2.6-1,3.5c-0.7,0.9-1.6,1.3-2.7,1.3c-0.7,0-1.3-0.1-1.8-0.4
			c-0.5-0.3-0.9-0.6-1.2-1.1v5h-1.1V27.4h0.8l0.2,1.5c0.3-0.5,0.7-0.9,1.2-1.2c0.5-0.3,1.1-0.4,1.8-0.4c1.2,0,2.1,0.5,2.7,1.4
			c0.7,0.9,1,2.2,1,3.7V32.5z M100.1,32.3c0-1.2-0.2-2.2-0.7-3c-0.5-0.8-1.2-1.2-2.1-1.2c-0.7,0-1.3,0.2-1.7,0.5
			c-0.4,0.3-0.8,0.8-1,1.3v4.7c0.2,0.5,0.6,0.9,1.1,1.2c0.5,0.3,1,0.5,1.7,0.5c0.9,0,1.6-0.4,2.1-1.1c0.5-0.7,0.7-1.6,0.7-2.8V32.3z
			"/>
	</g>
	<g id="XMLID_98_">
		<path id="XMLID_100_" class="st2" d="M38.3,32.7L23,23.9c0-0.1,0-0.2,0-0.4c0-1-0.6-1.8-1.5-2V4.7h-1v16.8c-1,0.2-1.7,1.1-1.7,2.1
			c0,0.1,0,0.3,0,0.4L4.4,32.7l0.5,0.9l14.3-8.7c0.4,0.5,1,0.8,1.7,0.8c0.7,0,1.3-0.3,1.7-0.8l15.3,8.7L38.3,32.7z"/>
		<path id="XMLID_99_" class="st3" d="M37.8,28.9c-2.3,0-4.2,1.9-4.2,4.2c0,0.1,0,0.1,0,0.2l-10.5,6.1c-0.6-0.4-1.3-0.6-2.1-0.6
			c-0.8,0-1.6,0.3-2.3,0.7l-10.4-6c0-0.1,0-0.3,0-0.5c0-1.6-0.9-3-2.3-3.7l0-11.6C7.4,17,8.3,15.6,8.3,14c0-0.1,0-0.2,0-0.3l10.3-6
			c0.7,0.4,1.4,0.7,2.3,0.7c0.8,0,1.5-0.2,2.2-0.6l10.5,6c0,0.1,0,0.2,0,0.3c0,2.3,1.9,4.2,4.2,4.2c2.3,0,4.2-1.9,4.2-4.2
			s-1.9-4.2-4.2-4.2c-0.8,0-1.5,0.2-2.2,0.6l-10.5-6c0-0.1,0-0.2,0-0.3C25.1,1.9,23.3,0,21,0s-4.2,1.9-4.2,4.2c0,0.1,0,0.1,0,0.2
			L6.3,10.5C5.7,10.1,5,9.9,4.2,9.9C1.9,9.9,0,11.7,0,14c0,1.6,0.9,3,2.3,3.7l0,11.6C0.9,30,0,31.4,0,33c0,2.3,1.9,4.2,4.2,4.2
			c0.7,0,1.4-0.2,2-0.5l10.6,6.1c0,0.1,0,0.1,0,0.2c0,2.3,1.9,4.2,4.2,4.2s4.2-1.9,4.2-4.2c0-0.1,0-0.2,0-0.3l10.4-6.1
			c0.6,0.4,1.4,0.7,2.2,0.7c2.3,0,4.2-1.9,4.2-4.2S40.1,28.9,37.8,28.9z"/>
	</g>
</g>
</svg>
